<svg id="logos" xmlns="http://www.w3.org/2000/svg" viewBox="0 0 137 46"><style>.logoh0{opacity:.8;fill:#4e545b}.logoh1{fill:#c1c5c8}.logoh2{fill:#101820}.logoh3{fill:#2272ba}.logoh4{fill:#00bfde}</style><path class="logoh3" d="M29.5 19.7c-1.9 1.5-5.6 2.9-10.4 4.6l-7.5 2.5c-4.2 1.4-7 2.6-8.9 3.6 1.2.7 2.7 1.4 4.3 2 1.5-.6 3-1.2 4.6-1.8l7.5-2.5c9.3-3.1 11.4-4.9 11.7-6.5 0-.6-.5-1.3-1.3-1.9z"/><path class="logoh1" d="M30.9 21.5v-3.9 3.9z"/><path class="logoh3" d="M1.3 29.3c2-1.7 6.3-3.3 10.5-4.7l7.5-2.5c4.2-1.4 7-2.6 8.7-3.5-1.2-.7-2.7-1.4-4.4-2-1.3.6-2.7 1.1-4.3 1.7l-7.5 2.5C3.5 23.6.3 25.4 0 27.4c.1.6.5 1.3 1.3 1.9z"/><path class="logoh1" d="M0 27.4V30v-2.6zm0 3.8zm0-3.8zm0 3.8V30zm30.9-9.5v-.2.2z"/><path class="logoh4" d="M26.5 39c-5.4-1.8-11.2-3.7-14.3-4.8-1.7-.6-3.5-1.2-5.1-1.9-1.6-.6-3.1-1.3-4.3-2-.6-.4-1.1-.7-1.6-1.1C.5 28.7.1 28 0 27.4v3.8c0 .4.2.7.4 1.1.5.7 1.3 1.4 2.7 2.1 1.9 1 4.8 2.2 8.8 3.6 2.3.8 9 3 13.2 4.3 1.2.4 2.5-.4 2.5-1.6 0-.7-.4-1.4-1.1-1.7zm3.9-22.3c-.5-.7-1.5-1.4-2.9-2.2-1.9-1-4.7-2.1-8.5-3.5-2.2-.8-6.7-2.3-9.1-3.3-1.3-.4-2.6.5-2.6 1.7 0 .7.4 1.3 1.1 1.6l10.4 3.8c1.6.6 3.3 1.2 4.8 1.8 1.6.6 3.1 1.3 4.4 2 .6.4 1.2.7 1.6 1.1.8.6 1.3 1.3 1.3 1.9v-3.9c-.1-.3-.2-.6-.5-1zm.2-5.8C29.5 9.3 26.1 7.6 19 5.1 16.7 4.3 9.4 1.9 5.6.5 4.4 0 3 .9 3 2.1c0 .7.4 1.3 1.1 1.6 3.8 1.6 11.5 4 14.6 5.1 3.9 1.4 8 2.9 10.3 4.5.6.4 1.1.9 1.4 1.3 0 0 .5.8.5-.1v-2.6c0-.3-.1-.7-.3-1zM18.4 42.3s-3.2-1-6.3-2.1c-4.1-1.4-8.4-3-10.6-4.7-.5-.4-1-.8-1.2-1.3 0 0 0-.1-.1-.1 0-.1-.2-.2-.2.4v2.7c.2 2 3.5 3.9 11.9 6.8l5 1.5c1.2.4 2.5-.4 2.5-1.6.1-.7-.3-1.3-1-1.6z"/><path class="logoh2" d="M86.7 15.8h-.4c-.4 0-.8.2-1.1.5L77.9 24l-7.2-7.7c-.3-.3-.7-.5-1.1-.5h-.4c-1.2 0-1.9 1.5-1.1 2.4l7.3 7.6c.5.5.8.7.8 1.7v3.3c0 .7.5 1.2 1.2 1.2h.9c.7 0 1.2-.5 1.2-1.2v-3.3c0-.9.3-1.1.8-1.7l7.4-7.6c.9-.9.2-2.4-1-2.4zm25 0h-1.4c-1.3 0-1.8.6-2.3 1.3l-5.4 6.6-5.4-6.6c-.5-.6-1-1.3-2.3-1.3h-1.4c-1 0-1.8.8-1.8 1.8v13c0 .7.6 1.3 1.3 1.3h.7c.7 0 1.3-.6 1.3-1.3V19.9c0-.2.2-.2.3-.1l6.5 7.8.2.4c.3.3.8.3 1 0l.4-.4 6.5-7.9c.1-.1.3-.1.3.1v10.8c0 .7.6 1.3 1.3 1.3h.7c.7 0 1.3-.6 1.3-1.3v-13c0-1-.8-1.8-1.8-1.8zm-47.4 2c0-1.1-.9-2-2-2H47.2c-.7 0-1.3.6-1.3 1.3v.3c0 .7.6 1.3 1.3 1.3h12l-13 9.6c-.5.4-.8 1-.8 1.6 0 1.1.9 2 2 2h15.5c.8 0 1.4-.6 1.4-1.4v-.2c0-.8-.6-1.4-1.4-1.4H50.5l13-9.6c.5-.3.8-.9.8-1.5zm69.3 8.4c.4-.2 1-.5 1.4-.9.5-.4.9-.8 1.2-1.4.5-.8.8-1.8.8-3.2 0-3.2-2.5-5-6.4-5H120c-1.1 0-2.1.9-2.1 2.1v12.8c0 .7.6 1.4 1.4 1.4h.7c.7 0 1.4-.6 1.4-1.4v-4h8.1l4.8 5c.5.6 1.4.6 2 .1l.4-.4c.6-.5.6-1.4.1-2l-3.2-3.1zm-12.3-7.1c0-.2.1-.3.3-.3h9.2c2.1 0 2.7 1.4 2.7 2.4 0 1.1-.6 2.4-2.7 2.4h-9.5v-4.5z"/></svg>